<?xml version="1.0" encoding="UTF-8"?>
<svg id="Layer_2" data-name="Layer 2" xmlns="http://www.w3.org/2000/svg" viewBox="0 0 48.09 152">
  <g id="Layer_1-2" data-name="Layer 1">
    <path d="M45.89,148.1c-1.3-.5-3.6-2.3-5.3-4.1l-3-3.1v-64.4c0-63.5,0-64.4,2.1-67.1,1.1-1.5,3.5-3.5,5.2-4.3,1.7-.9,3.2-2.4,3.2-3.4,0-1.6-1.8-1.7-24-1.7S.09.1.09,1.7c0,1,1.6,2.7,3.7,3.8,2,1.1,4.6,3.3,5.7,4.8,2.1,2.8,2.1,3.6,2.1,66.2s0,63.4-2.1,66.2c-1.1,1.5-3.7,3.7-5.7,4.8-7.5,4-5.4,4.5,20.3,4.5,20.8,0,24-.2,24-1.5,0-.9-1-1.9-2.2-2.4Z"/>
  </g>
</svg>