<?xml version="1.0" encoding="UTF-8"?>
<svg id="Layer_2" data-name="Layer 2" xmlns="http://www.w3.org/2000/svg" viewBox="0 0 103.38 152">
  <g id="Layer_1-2" data-name="Layer 1">
    <path d="M102.16,112c-1,0-1.9,1.6-2.6,5-2.9,13.5-12.3,23.3-25.6,26.9-2.2.6-11.3,1.2-20.2,1.4l-16.3.4v-66.1c0-74.1-.4-69.9,7.3-74.1,2.1-1.1,3.7-2.7,3.7-3.7,0-1.7-1.7-1.8-23.9-1.8C4.26,0,.56.2.06,1.5c-.3,1,.6,2,2.7,3.1,5.4,2.7,7.6,5.4,8.7,10.8.8,3.5,1,23.6.8,64.1l-.3,59-2.3,3.6c-1.2,2-3.8,4.4-5.7,5.3-1.9.9-3.5,2.3-3.5,3.1,0,1.3,6.8,1.5,49,1.5h49l.5-2.3c.8-3.6,3.3-22.7,4.1-30.5.6-6.1.4-7.2-.9-7.2Z"/>
  </g>
</svg>