<?xml version="1.0" encoding="UTF-8"?>
<svg id="Layer_2" data-name="Layer 2" xmlns="http://www.w3.org/2000/svg" viewBox="0 0 153.27 155.56">
  <g id="Layer_1-2" data-name="Layer 1">
    <path d="M150.97,52.21c-4-13.9-8.6-22.1-17.1-30.5-9.3-9.1-16.2-13.3-29.4-17.8C95.27.91,92.87.51,80.77.11c-9.8-.3-15.4,0-20.4,1.2-14.4,3.2-26.8,10.6-38.6,23.1C10.57,36.21,4.37,47.91,1.07,63.01c-1.9,9.2-1.2,28.2,1.5,38.2,7,25.8,24,43.4,49.7,51.5,5.5,1.8,10.3,2.3,22.5,2.7,18.5.6,23.8-.4,38-7.4,8.1-4,10.9-6,19-14.2,7.8-7.8,10.4-11.2,13.8-18.1,6.6-13.4,7.7-18.8,7.7-38.5,0-14.7-.4-18.1-2.3-25ZM109.07,140.81c-9.9,6.8-24.2,8.7-36.7,4.9-17.3-5.4-30.6-20.7-38.5-44.6-4.1-12.5-5-19.6-4.7-37.4.5-22.3,3.9-33.9,12.8-43.6,8-8.7,15.4-11.5,29.3-11.1,7.8.2,9.9.6,15.9,3.4,25.1,12,40.6,43,40.6,81.6,0,21.7-6.7,38.6-18.7,46.8Z"/>
  </g>
</svg>