<?xml version="1.0" encoding="UTF-8"?>
<svg id="Layer_2" data-name="Layer 2" xmlns="http://www.w3.org/2000/svg" viewBox="0 0 220.85 173.8">
  <g id="Layer_1-2" data-name="Layer 1">
    <path d="M217.4,156.8c-7.6,3.9-20.6,7.3-29.8,7.8-19.8,1.3-38.2-6-54.8-21.5-9.7-9.1-15.1-16.5-23.5-32.4-9.7-18.1-17.1-26.4-27.8-31.3-4.2-1.8-4.7-2.3-3-2.9,6.2-2.1,16.8-8,20.8-11.5,2.9-2.6,5.9-6.6,7.9-10.8,3-6.1,3.3-7.4,3.3-16.2,0-8.1-.4-10.2-2.4-14-3.9-7.4-7-10.7-13.7-15C82.8,1.7,70.8,0,27.8,0,2.9,0,1,.1,1,1.7c0,1,1.6,2.7,3.7,3.8,5.5,3,7.6,6.6,8.4,14.3,1,8.7,1,108.1,0,115-.9,6.5-3.4,10.1-8.9,12.7-2.5,1.2-4.1,2.7-4.2,3.7,0,1.7,1.9,1.8,25.5,1.8,21.9,0,25.5-.2,25.5-1.5,0-.8-1.7-2.5-3.7-3.9-8.8-5.5-9.3-7.5-9.3-40.5v-26.4l7.3.5c14.4,1,22.1,8.1,36.2,33.8,17.5,31.7,33.8,47,59,55.6,6.8,2.2,10.2,2.7,22,3.1,20.3.7,31.3-2.1,49.5-12.3,8.2-4.6,12.2-8.1,5.4-4.6ZM44.8,74h-6.8V7h7.8c4.3,0,10.3.7,13.5,1.5,23.8,6.2,32.4,34.8,16.5,54.6-5.7,7.1-16.5,10.9-31,10.9Z"/>
  </g>
</svg>