<?xml version="1.0" standalone="no"?>
<!DOCTYPE svg PUBLIC "-//W3C//DTD SVG 20010904//EN"
 "http://www.w3.org/TR/2001/REC-SVG-20010904/DTD/svg10.dtd">
<svg version="1.0" xmlns="http://www.w3.org/2000/svg"
 width="1876.000000pt" height="536.000000pt" viewBox="0 0 1876.000000 536.000000"
 preserveAspectRatio="xMidYMid meet">

<g transform="translate(0.000000,536.000000) scale(0.100000,-0.100000)"
fill="#000000" stroke="none">
<path d="M7430 4110 c-339 -29 -668 -210 -948 -523 -195 -218 -318 -455 -378
-732 -24 -111 -24 -443 0 -610 55 -378 259 -728 555 -951 178 -133 455 -249
656 -275 56 -7 215 -12 365 -13 255 0 269 1 360 26 174 47 405 162 531 265 84
68 275 265 332 341 50 69 148 262 184 365 48 137 54 194 60 517 5 345 -3 435
-58 606 -80 250 -165 393 -333 559 -169 168 -318 260 -546 340 -168 58 -250
74 -435 85 -186 11 -219 11 -345 0z m305 -209 c414 -147 736 -581 850 -1144
38 -193 48 -297 49 -512 0 -290 -33 -455 -129 -650 -82 -168 -185 -275 -330
-345 -255 -124 -589 -109 -831 36 -254 153 -450 424 -573 791 -85 254 -107
423 -98 758 6 248 18 357 53 495 78 309 300 544 557 590 29 5 129 7 222 6 142
-3 180 -7 230 -25z"/>
<path d="M880 4068 c0 -19 -27 -299 -45 -466 -20 -183 -18 -237 10 -237 15 0
32 24 71 105 56 115 120 195 231 291 84 72 156 112 253 138 72 20 274 41 388
41 l55 0 -7 -1267 c-3 -698 -10 -1293 -15 -1324 -6 -38 -20 -72 -43 -105 -39
-55 -119 -120 -159 -129 -34 -8 -62 -38 -57 -61 2 -12 17 -21 43 -26 61 -13
952 -5 965 8 18 18 3 37 -65 83 -81 55 -94 70 -144 158 l-41 72 0 1296 0 1295
68 0 c122 -1 320 -19 384 -35 167 -43 313 -173 429 -379 18 -33 40 -83 49
-110 13 -37 23 -52 38 -54 17 -3 22 4 28 34 7 40 -2 532 -12 627 l-6 57 -1209
0 c-961 0 -1209 -3 -1209 -12z"/>
<path d="M3595 4071 c-48 -10 -45 -44 7 -80 108 -76 129 -94 149 -133 33 -64
39 -93 49 -218 13 -153 13 -2075 0 -2213 -15 -166 -54 -230 -181 -298 -65 -35
-92 -70 -70 -92 14 -14 876 -23 957 -10 68 12 66 35 -11 93 -107 82 -140 120
-159 190 -25 88 -35 308 -36 769 l0 384 106 -7 c324 -22 460 -140 744 -646
318 -566 570 -845 932 -1030 218 -113 365 -154 603 -171 402 -29 661 18 968
175 148 75 312 175 303 184 -3 3 -54 -16 -113 -41 -572 -243 -1109 -164 -1579
234 -208 176 -327 329 -503 647 -173 312 -216 376 -331 496 -83 87 -149 135
-257 190 -67 33 -91 56 -60 56 22 0 252 117 328 166 124 82 201 176 269 329
l35 80 0 196 0 196 -43 84 c-84 166 -183 261 -367 349 -158 76 -282 100 -600
120 -182 11 -1090 12 -1140 1z m990 -142 c122 -14 196 -34 275 -74 155 -78
275 -220 324 -385 91 -301 -46 -659 -298 -779 -123 -59 -293 -90 -493 -91
l-93 0 0 670 0 670 98 0 c53 0 138 -5 187 -11z"/>
<path d="M8975 4071 c-52 -11 -42 -35 40 -97 168 -126 237 -275 710 -1529 215
-569 464 -1228 507 -1342 l19 -53 218 0 218 0 153 443 c83 243 278 819 431
1280 154 460 294 870 310 909 48 116 111 209 194 283 41 37 75 73 75 80 0 20
-39 24 -315 31 -300 8 -355 4 -355 -29 0 -12 20 -48 45 -79 67 -85 85 -125 85
-186 0 -132 -95 -468 -385 -1367 -51 -159 -132 -418 -180 -574 -47 -156 -91
-293 -97 -305 -11 -19 -15 -14 -49 59 -126 265 -558 1414 -720 1915 -49 150
-54 173 -54 255 0 98 10 123 90 223 55 69 50 78 -47 85 -105 9 -853 7 -893 -2z"/>
<path d="M12150 4071 c-45 -12 -33 -50 30 -93 101 -70 137 -112 152 -176 19
-83 19 -2420 0 -2504 -15 -67 -60 -117 -153 -174 -61 -37 -72 -56 -41 -70 23
-11 846 -17 897 -7 57 12 54 39 -9 80 -27 18 -74 56 -103 85 l-54 53 4 1260
c3 926 8 1272 16 1307 13 49 62 102 150 161 49 32 53 66 11 78 -33 9 -867 9
-900 0z"/>
<path d="M13515 4075 c-5 -2 -23 -6 -38 -9 -47 -11 -32 -43 43 -88 81 -48 125
-97 148 -162 15 -47 17 -147 20 -1276 l3 -1225 -44 -65 c-31 -47 -62 -77 -115
-113 -40 -26 -72 -54 -72 -62 0 -8 12 -18 28 -22 15 -5 457 -8 982 -8 l955 0
17 104 c27 159 78 575 78 632 0 36 -4 51 -16 56 -26 10 -43 -19 -69 -116 -67
-249 -225 -420 -462 -502 -70 -24 -207 -35 -531 -45 l-244 -7 5 1264 c3 883 8
1288 16 1343 17 111 37 146 108 184 97 51 122 100 58 113 -30 7 -851 10 -870
4z"/>
<path d="M15785 4073 c-86 -9 -80 -32 29 -117 91 -72 133 -128 147 -198 13
-65 13 -2051 0 -2294 -12 -218 -32 -261 -163 -340 -62 -38 -72 -57 -35 -70 12
-4 448 -9 969 -11 l946 -4 16 69 c17 76 69 428 87 595 9 82 9 111 0 120 -18
18 -36 -9 -71 -108 -17 -49 -45 -117 -62 -150 -92 -181 -245 -307 -435 -355
-91 -24 -321 -40 -565 -40 l-168 0 0 1078 c1 1088 8 1482 31 1582 13 63 49
102 142 159 59 36 75 57 57 75 -11 11 -835 19 -925 9z"/>
</g>
</svg>
