<?xml version="1.0" encoding="UTF-8"?>
<svg id="Layer_2" data-name="Layer 2" xmlns="http://www.w3.org/2000/svg" viewBox="0 0 124.95 153">
  <g id="Layer_1-2" data-name="Layer 1">
    <path d="M124.35,7.7l-.7-7.7H3.15l-.7,7.7c-.3,4.3-1.1,11.4-1.6,15.8-1.2,10.7-1.2,12.5.5,12.5.8,0,2.2-2.2,3.2-5.2,1.3-3.9,3.4-6.9,8.3-11.9,8.5-8.5,14.5-11,28.4-11.7l9.7-.4v63.8c0,40.3-.4,65.3-1,67.6-1.1,4-6.6,9.4-10.5,10.4-1.6.4-2.5,1.3-2.5,2.5,0,1.8,1.2,1.9,25.5,1.9,21.4,0,25.5-.2,25.5-1.4,0-.8-1.9-2.5-4.2-3.8-3-1.6-5-3.7-6.5-6.8l-2.3-4.4V6.7l10.8.5c12.9.5,18.3,2.6,25.6,9.6,4.4,4.2,10.6,14.8,10.6,17.9,0,.7.7,1.3,1.5,1.3,1.2,0,1.5-1.8,1.5-10.3,0-5.7-.3-13.8-.6-18Z"/>
  </g>
</svg>