<?xml version="1.0" standalone="no"?>
<!DOCTYPE svg PUBLIC "-//W3C//DTD SVG 20010904//EN"
 "http://www.w3.org/TR/2001/REC-SVG-20010904/DTD/svg10.dtd">
<svg version="1.0" xmlns="http://www.w3.org/2000/svg"
 width="1024.000000pt" height="1024.000000pt" viewBox="0 0 1024.000000 1024.000000"
 preserveAspectRatio="xMidYMid meet">

<g transform="translate(0.000000,1024.000000) scale(0.100000,-0.100000)"
fill="#000000" stroke="none">
<path d="M4166 6024 c-144 -32 -268 -106 -386 -231 -112 -118 -174 -235 -207
-386 -19 -92 -12 -282 15 -382 70 -258 240 -434 497 -515 55 -18 103 -23 225
-27 185 -6 238 4 380 74 81 40 109 60 190 142 78 78 104 112 138 181 66 134
77 188 77 385 0 147 -4 181 -23 250 -40 139 -86 221 -171 305 -93 91 -162 133
-294 178 -92 30 -116 34 -237 38 -98 3 -154 0 -204 -12z m268 -111 c251 -120
406 -430 406 -816 0 -217 -67 -386 -187 -468 -99 -68 -242 -87 -367 -49 -173
54 -306 207 -385 446 -41 125 -50 196 -47 374 5 223 39 339 128 436 80 87 154
115 293 111 78 -2 99 -6 159 -34z"/>
<path d="M955 5943 c-3 -43 -11 -114 -16 -158 -12 -107 -12 -125 5 -125 8 0
22 22 32 52 13 39 34 69 83 119 85 85 145 110 284 117 l97 4 0 -638 c0 -403
-4 -653 -10 -676 -11 -40 -66 -94 -105 -104 -16 -4 -25 -13 -25 -25 0 -18 12
-19 255 -19 214 0 255 2 255 14 0 8 -19 25 -42 38 -30 16 -50 37 -65 68 l-23
44 0 649 0 650 108 -5 c129 -5 183 -26 256 -96 44 -42 106 -148 106 -179 0 -7
7 -13 15 -13 12 0 15 18 15 103 0 57 -3 138 -6 180 l-7 77 -603 0 -602 0 -7
-77z"/>
<path d="M2300 6003 c0 -10 16 -27 37 -38 55 -30 76 -66 84 -143 10 -87 10
-1081 0 -1150 -9 -65 -34 -101 -89 -127 -25 -12 -41 -27 -42 -37 0 -17 19 -18
255 -18 219 0 255 2 255 15 0 8 -17 25 -37 39 -88 55 -93 75 -93 405 l0 264
73 -5 c144 -10 221 -81 362 -338 175 -317 338 -470 590 -556 68 -22 102 -27
220 -31 203 -7 313 21 495 123 82 46 122 81 54 46 -76 -39 -206 -73 -298 -78
-198 -13 -382 60 -548 215 -97 91 -151 165 -235 324 -97 181 -171 264 -278
313 -42 18 -47 23 -30 29 62 21 168 80 208 115 29 26 59 66 79 108 30 61 33
74 33 162 0 81 -4 102 -24 140 -39 74 -70 107 -137 150 -116 73 -236 90 -666
90 -249 0 -268 -1 -268 -17z m583 -68 c238 -62 324 -348 165 -546 -57 -71
-165 -109 -310 -109 l-68 0 0 335 0 335 78 0 c43 0 103 -7 135 -15z"/>
<path d="M4990 6006 c0 -8 15 -24 34 -35 77 -48 124 -143 295 -596 66 -176
167 -444 225 -595 l103 -275 108 0 107 0 95 275 c115 337 270 800 313 935 43
134 85 211 135 247 22 16 40 35 40 41 0 9 -47 13 -167 15 -155 2 -168 1 -168
-15 0 -10 14 -31 30 -47 16 -16 32 -44 36 -62 11 -58 -33 -217 -206 -749 -27
-82 -65 -206 -85 -275 -20 -69 -40 -129 -44 -133 -19 -19 -410 1029 -413 1107
-2 58 4 79 38 116 20 21 33 44 29 50 -4 6 -94 10 -256 10 -208 0 -249 -2 -249
-14z"/>
<path d="M6580 6003 c0 -10 16 -27 37 -38 20 -11 46 -33 57 -48 21 -28 21 -36
21 -662 0 -626 0 -634 -21 -662 -11 -15 -37 -37 -57 -48 -75 -40 -54 -45 203
-45 208 0 240 2 240 15 0 9 -10 19 -22 24 -13 5 -36 23 -53 41 l-30 31 0 644
c0 635 0 644 21 671 11 15 35 35 52 43 17 9 32 24 32 34 0 16 -18 17 -240 17
-222 0 -240 -1 -240 -17z"/>
<path d="M7246 6005 c-3 -10 6 -20 27 -31 54 -27 76 -54 87 -108 8 -35 10
-236 8 -641 l-3 -590 -23 -36 c-12 -20 -38 -44 -57 -53 -19 -9 -35 -23 -35
-31 0 -13 68 -15 490 -15 l490 0 5 23 c8 36 33 227 41 305 6 61 4 72 -9 72
-10 0 -19 -16 -26 -50 -29 -135 -123 -233 -256 -269 -22 -6 -113 -12 -202 -14
l-163 -4 0 661 c0 741 -4 699 73 741 21 11 37 27 37 37 0 17 -17 18 -239 18
-203 0 -240 -2 -245 -15z"/>
<path d="M8384 6008 c-4 -7 2 -18 15 -27 61 -43 92 -76 101 -109 8 -25 10
-232 8 -637 -3 -583 -4 -601 -23 -635 -12 -19 -38 -44 -58 -55 -81 -44 -67
-45 447 -45 l484 0 11 48 c10 47 38 247 43 311 5 58 -16 45 -35 -21 -24 -83
-80 -165 -141 -206 -77 -51 -140 -65 -318 -67 l-158 -2 0 656 c0 742 -4 705
78 749 23 13 42 30 42 38 0 12 -40 14 -244 14 -177 0 -247 -3 -252 -12z"/>
</g>
</svg>
