<?xml version="1.0" encoding="UTF-8"?>
<svg id="Layer_2" data-name="Layer 2" xmlns="http://www.w3.org/2000/svg" viewBox="0 0 145.5 151.5">
  <g id="Layer_1-2" data-name="Layer 1">
    <path d="M128.8.2c-15.5-.2-16.8-.1-16.8,1.5,0,1,1.4,3.1,3,4.7s3.2,4.4,3.6,6.2c1.1,5.8-3.3,21.7-20.6,74.9-2.7,8.2-6.5,20.6-8.5,27.5-2,6.9-4,12.9-4.4,13.3-1.9,1.9-41-102.9-41.3-110.7-.2-5.8.4-7.9,3.8-11.6,2-2.1,3.3-4.4,2.9-5-.4-.6-9.4-1-25.6-1C4.1,0,0,.2,0,1.4c0,.8,1.5,2.4,3.4,3.5,7.7,4.8,12.4,14.3,29.5,59.6,6.6,17.6,16.7,44.4,22.5,59.5l10.3,27.5h21.5l9.5-27.5c11.5-33.7,27-80,31.3-93.5,4.3-13.4,8.5-21.1,13.5-24.7,2.2-1.6,4-3.5,4-4.1,0-.9-4.7-1.3-16.7-1.5Z"/>
  </g>
</svg>